<svg width="14" height="14" viewBox="0 0 14 14" fill="none" xmlns="http://www.w3.org/2000/svg">
<path d="M0 0.59375C0 0.436278 0.0625555 0.285255 0.173905 0.173905C0.285255 0.0625555 0.436278 0 0.59375 0H1.0355C1.78758 0 2.23883 0.505875 2.49612 0.976125C2.66792 1.28962 2.79221 1.653 2.88958 1.98233C2.91592 1.98025 2.94233 1.9792 2.96875 1.97917H12.863C13.5201 1.97917 13.9951 2.60775 13.8146 3.24029L12.3674 8.31408C12.2377 8.76918 11.9632 9.1696 11.5855 9.45472C11.2078 9.73985 10.7475 9.89414 10.2743 9.89425H5.56542C5.08843 9.89427 4.62464 9.73764 4.24533 9.44844C3.86602 9.15924 3.59219 8.75347 3.46592 8.2935L2.86425 6.099L1.86675 2.736L1.86596 2.72967C1.74246 2.28079 1.62687 1.86042 1.45429 1.54692C1.28883 1.24212 1.15583 1.1875 1.03629 1.1875H0.59375C0.436278 1.1875 0.285255 1.12494 0.173905 1.01359C0.0625555 0.902245 0 0.751222 0 0.59375ZM4.01613 5.81083L4.61067 7.97921C4.72942 8.40829 5.11971 8.70675 5.56542 8.70675H10.2743C10.4894 8.70675 10.6986 8.63666 10.8703 8.50709C11.042 8.37753 11.1668 8.19555 11.2258 7.98871L12.601 3.16667H3.23396L4.00504 5.76887L4.01613 5.81083Z" />
<path d="M6.72917 12.2708C6.72917 12.6908 6.56235 13.0935 6.26542 13.3904C5.96849 13.6874 5.56576 13.8542 5.14583 13.8542C4.72591 13.8542 4.32318 13.6874 4.02625 13.3904C3.72931 13.0935 3.5625 12.6908 3.5625 12.2708C3.5625 11.8509 3.72931 11.4482 4.02625 11.1512C4.32318 10.8543 4.72591 10.6875 5.14583 10.6875C5.56576 10.6875 5.96849 10.8543 6.26542 11.1512C6.56235 11.4482 6.72917 11.8509 6.72917 12.2708V12.2708ZM5.54167 12.2708C5.54167 12.1659 5.49996 12.0652 5.42573 11.9909C5.3515 11.9167 5.25081 11.875 5.14583 11.875C5.04085 11.875 4.94017 11.9167 4.86594 11.9909C4.7917 12.0652 4.75 12.1659 4.75 12.2708C4.75 12.3758 4.7917 12.4765 4.86594 12.5507C4.94017 12.625 5.04085 12.6667 5.14583 12.6667C5.25081 12.6667 5.3515 12.625 5.42573 12.5507C5.49996 12.4765 5.54167 12.3758 5.54167 12.2708Z" />
<path d="M12.2709 12.2708C12.2709 12.6908 12.1041 13.0935 11.8072 13.3904C11.5102 13.6874 11.1075 13.8542 10.6876 13.8542C10.2677 13.8542 9.86493 13.6874 9.568 13.3904C9.27106 13.0935 9.10425 12.6908 9.10425 12.2708C9.10425 11.8509 9.27106 11.4482 9.568 11.1512C9.86493 10.8543 10.2677 10.6875 10.6876 10.6875C11.1075 10.6875 11.5102 10.8543 11.8072 11.1512C12.1041 11.4482 12.2709 11.8509 12.2709 12.2708V12.2708ZM11.0834 12.2708C11.0834 12.1659 11.0417 12.0652 10.9675 11.9909C10.8932 11.9167 10.7926 11.875 10.6876 11.875C10.5826 11.875 10.4819 11.9167 10.4077 11.9909C10.3335 12.0652 10.2917 12.1659 10.2917 12.2708C10.2917 12.3758 10.3335 12.4765 10.4077 12.5507C10.4819 12.625 10.5826 12.6667 10.6876 12.6667C10.7926 12.6667 10.8932 12.625 10.9675 12.5507C11.0417 12.4765 11.0834 12.3758 11.0834 12.2708Z" />
</svg>
