<svg width="15" height="15" viewBox="0 0 15 15" fill="none" xmlns="http://www.w3.org/2000/svg">
<path d="M9.37488 6.25H7.49988V4.375C7.49988 4.20924 7.43403 4.05027 7.31682 3.93306C7.19961 3.81585 7.04064 3.75 6.87488 3.75C6.70912 3.75 6.55015 3.81585 6.43294 3.93306C6.31573 4.05027 6.24988 4.20924 6.24988 4.375V6.25H4.37488C4.20912 6.25 4.05015 6.31585 3.93294 6.43306C3.81573 6.55027 3.74988 6.70924 3.74988 6.875C3.74988 7.04076 3.81573 7.19973 3.93294 7.31694C4.05015 7.43415 4.20912 7.5 4.37488 7.5H6.24988V9.375C6.24988 9.54076 6.31573 9.69973 6.43294 9.81694C6.55015 9.93415 6.70912 10 6.87488 10C7.04064 10 7.19961 9.93415 7.31682 9.81694C7.43403 9.69973 7.49988 9.54076 7.49988 9.375V7.5H9.37488C9.54064 7.5 9.69961 7.43415 9.81682 7.31694C9.93403 7.19973 9.99988 7.04076 9.99988 6.875C9.99988 6.70924 9.93403 6.55027 9.81682 6.43306C9.69961 6.31585 9.54064 6.25 9.37488 6.25ZM13.5686 12.6813L11.2499 10.3813C12.1499 9.25901 12.5858 7.83456 12.4679 6.40081C12.35 4.96706 11.6872 3.63299 10.6158 2.6729C9.54449 1.71282 8.14601 1.1997 6.70796 1.23905C5.2699 1.2784 3.90158 1.86723 2.88434 2.88446C1.86711 3.9017 1.27827 5.27003 1.23892 6.70808C1.19957 8.14613 1.7127 9.54461 2.67278 10.616C3.63287 11.6873 4.96694 12.3501 6.40069 12.468C7.83444 12.5859 9.25889 12.1501 10.3811 11.25L12.6811 13.55C12.7392 13.6086 12.8084 13.6551 12.8845 13.6868C12.9607 13.7185 13.0424 13.7349 13.1249 13.7349C13.2074 13.7349 13.2891 13.7185 13.3652 13.6868C13.4414 13.6551 13.5105 13.6086 13.5686 13.55C13.6813 13.4335 13.7442 13.2777 13.7442 13.1156C13.7442 12.9535 13.6813 12.7978 13.5686 12.6813ZM6.87488 11.25C6.00959 11.25 5.16372 10.9934 4.44426 10.5127C3.72479 10.0319 3.16404 9.34867 2.83291 8.54924C2.50177 7.74981 2.41513 6.87015 2.58394 6.02148C2.75275 5.17281 3.16943 4.39326 3.78129 3.78141C4.39314 3.16955 5.17269 2.75288 6.02136 2.58407C6.87003 2.41526 7.74969 2.50189 8.54912 2.83303C9.34855 3.16416 10.0318 3.72492 10.5126 4.44438C10.9933 5.16385 11.2499 6.00971 11.2499 6.875C11.2499 8.03532 10.7889 9.14812 9.96847 9.96859C9.148 10.7891 8.0352 11.25 6.87488 11.25Z" fill="url(#paint0_linear_516_1704)"/>
<defs>
<linearGradient id="paint0_linear_516_1704" x1="1.23682" y1="1.23694" x2="13.7347" y2="13.7444" gradientUnits="userSpaceOnUse">
<stop stop-color="#1389FF"/>
<stop offset="1" stop-color="#1DB4E7"/>
</linearGradient>
</defs>
</svg>
